<svg xmlns="http://www.w3.org/2000/svg" width="102" height="42" fill="none"  xmlns:v="https://vecta.io/nano"><path d="M17.038 26.996c-1.362 1.77-3.476 2.908-5.858 2.908h-.025c-2.394 0-4.521-1.163-5.87-2.947l5.883-5.945 5.87 5.983z" fill="#349a89"/><g fill="#fff"><path fill-rule="evenodd" d="M52.057 3.399c0 .737.267 1.383.79 1.913.535.53 1.159.801 1.885.801a2.57 2.57 0 0 0 1.885-.801c.522-.53.79-1.176.79-1.913s-.267-1.383-.79-1.913a2.57 2.57 0 0 0-1.885-.801 2.57 2.57 0 0 0-1.885.801c-.522.53-.79 1.176-.79 1.913zm.611 26.841c0 .595.191 1.099.586 1.499s.891.594 1.477.594c.624 0 1.121-.194 1.503-.594.382-.388.573-.892.573-1.499V11.889c0-.633-.191-1.137-.573-1.525s-.879-.582-1.503-.582c-.586 0-1.082.194-1.477.582s-.586.892-.586 1.525V30.24z"/><path d="M79.321 30.602c0 .607-.242 1.111-.726 1.525-.408.336-.841.491-1.299.491-.599 0-1.082-.245-1.464-.737l-7.717-9.692-2.037 1.809v6.306c0 .607-.178 1.098-.548 1.46-.369.375-.853.556-1.439.556-.598 0-1.082-.181-1.439-.556-.369-.375-.548-.853-.548-1.46V2.132c0-.607.178-1.098.548-1.46.369-.375.84-.556 1.439-.556s1.082.181 1.439.556c.369.375.548.866.548 1.46v16.787l9.869-8.943a1.7 1.7 0 0 1 1.261-.53c.573 0 1.032.22 1.388.659a1.75 1.75 0 0 1 .522 1.279c0 .582-.216 1.047-.65 1.409l-7.475 6.759 7.882 9.822c.293.323.446.737.446 1.228z"/><path d="M96.575 11.088c1.694.969 3.018 2.326 3.986 4.058.955 1.732 1.439 3.709 1.439 5.945 0 2.197-.484 4.161-1.426 5.893s-2.267 3.089-3.961 4.058-3.629 1.46-5.794 1.46-4.1-.478-5.807-1.46a10.19 10.19 0 0 1-3.986-4.058c-.955-1.732-1.426-3.696-1.426-5.893 0-2.236.484-4.213 1.426-5.945a10.36 10.36 0 0 1 3.986-4.058c1.706-.969 3.642-1.46 5.807-1.46 2.139 0 4.062.491 5.756 1.46zm-13.638 9.964c0 4.42 3.527 7.986 7.87 7.986s7.857-3.567 7.87-7.986c0-4.42-3.527-7.986-7.87-7.986-4.355 0-7.87 3.58-7.87 7.986zm-39.845-9.964c1.694.969 3.018 2.326 3.986 4.058.955 1.732 1.439 3.709 1.426 5.945 0 2.197-.484 4.161-1.426 5.893a10.21 10.21 0 0 1-3.96 4.058c-1.693.969-3.629 1.46-5.794 1.46s-4.1-.478-5.807-1.46c-.446-.245-.866-.53-1.261-.84v9.692c0 .633-.191 1.137-.573 1.525S28.804 42 28.18 42c-.586 0-1.082-.194-1.477-.581s-.586-.892-.586-1.525V21.091c0-2.236.484-4.213 1.426-5.945a10.36 10.36 0 0 1 3.986-4.058c1.465-.84 3.12-1.318 4.941-1.434h.102l.726-.026h.038c2.139 0 4.062.491 5.756 1.46zm-13.638 9.964c0 4.42 3.527 7.986 7.87 7.986s7.87-3.567 7.87-7.986-3.527-7.986-7.87-7.986c-4.355 0-7.87 3.58-7.87 7.986zm-12.569-9.925a11.08 11.08 0 0 1 4.024 4.122c.993 1.745 1.477 3.683 1.464 5.828v9.201c0 .594-.191 1.098-.586 1.499-.382.401-.879.595-1.477.595-.586 0-1.082-.194-1.477-.595-.395-.388-.586-.892-.586-1.499V30.2c-.382.31-.802.582-1.235.84-1.694.969-3.629 1.46-5.794 1.46s-4.1-.478-5.807-1.46a10.19 10.19 0 0 1-3.986-4.058c-.006-.006-.01-.016-.013-.026s-.006-.019-.013-.026l-.038-.013a12.09 12.09 0 0 1-.879-2.249l-.115-.452-.038-.181c-.051-.194-.089-.401-.127-.607h0c0-.013-.003-.026-.006-.039S.19 23.363.19 23.35l-.102-.698v-.026l-.064-.75v-.013L0 21.078c0-2.145.484-4.084 1.464-5.828s2.33-3.114 4.049-4.122c1.719-.995 3.616-1.499 5.705-1.499s3.973.491 5.667 1.499zM3.324 21.052c0 4.42 3.527 7.986 7.87 7.986s7.87-3.567 7.87-7.986-3.515-7.986-7.87-7.986-7.87 3.58-7.87 7.986z" fill-rule="evenodd"/></g></svg>