<svg xmlns="http://www.w3.org/2000/svg" width="24" height="16" fill="none"  xmlns:v="https://vecta.io/nano"><path fill-rule="evenodd" d="M12 .949c4.607 0 8.852 2.316 11.352 6.195a1.58 1.58 0 0 1 0 1.713c-2.5 3.878-6.745 6.194-11.352 6.194A13.46 13.46 0 0 1 .648 8.857c-.335-.521-.335-1.192 0-1.713C3.149 3.265 7.393.949 12 .949zm0 12.902a12.26 12.26 0 0 0 10.344-5.645c.079-.123.079-.289 0-.412C20.064 4.259 16.198 2.149 12 2.149A12.26 12.26 0 0 0 1.657 7.794c-.08.123-.08.289 0 .412A12.26 12.26 0 0 0 12 13.851zM12 4.4c-1.985 0-3.6 1.615-3.6 3.6s1.615 3.6 3.6 3.6 3.6-1.615 3.6-3.6-1.615-3.6-3.6-3.6zM9.6 8c0 1.323 1.077 2.4 2.4 2.4s2.4-1.077 2.4-2.4-1.077-2.4-2.4-2.4S9.6 6.677 9.6 8z" fill="#000"/></svg>