<svg xmlns="http://www.w3.org/2000/svg" width="17" height="17" fill="none"  xmlns:v="https://vecta.io/nano"><path fill-rule="evenodd" d="M12.143 0h2.429A2.43 2.43 0 0 1 17 2.429v2.429a2.43 2.43 0 0 1-2.429 2.429h-2.429a2.43 2.43 0 0 1-2.429-2.429V2.429A2.43 2.43 0 0 1 12.143 0zm0 9.714h2.429A2.43 2.43 0 0 1 17 12.143v2.429A2.43 2.43 0 0 1 14.571 17h-2.429a2.43 2.43 0 0 1-2.429-2.429v-2.429a2.43 2.43 0 0 1 2.429-2.429zm-7.286 0H2.429A2.43 2.43 0 0 0 0 12.143v2.429A2.43 2.43 0 0 0 2.429 17h2.429a2.43 2.43 0 0 0 2.429-2.429v-2.429a2.43 2.43 0 0 0-2.429-2.429zM2.429 0h2.429a2.43 2.43 0 0 1 2.429 2.429v2.429a2.43 2.43 0 0 1-2.429 2.429H2.429A2.43 2.43 0 0 1 0 4.857V2.429A2.43 2.43 0 0 1 2.429 0z" fill="#505050"/></svg>