<svg xmlns="http://www.w3.org/2000/svg" width="20" height="19" fill="none"  xmlns:v="https://vecta.io/nano"><path fill-rule="evenodd" d="M14.468.01c1.5 0 2.926.628 3.915 1.606S20 4.021 20 5.521c0 .489-.05.969-.149 1.436-.199.937-.439 1.604-.989 2.447l-.734 1.042c-.221.279-.532.617-.925 1.011l-.958.925-.449.396-.615.541-1.702 1.542c-.391.365-.88.875-1.468 1.532a17.46 17.46 0 0 0-1.511 1.957.57.57 0 0 1-.5.266c-.191 0-.353-.084-.479-.266a16.93 16.93 0 0 0-2.351-2.755l-1.096-1.032-.147-.131L3.744 12.5l-.989-.936c-.409-.399-.713-.745-.926-1.021L1.096 9.5a5.78 5.78 0 0 1-.606-1.191A8.53 8.53 0 0 1 0 5.521c0-1.5.628-2.926 1.617-3.904S4.032.01 5.532.01a5.46 5.46 0 0 1 2.511.606A5.39 5.39 0 0 1 10 2.276 5.39 5.39 0 0 1 11.958.617 5.46 5.46 0 0 1 14.468.01zm2.404 10.074c1.029-1.141 1.646-2.298 1.851-3.479a6.36 6.36 0 0 0 .096-1.085 4.14 4.14 0 0 0-1.277-3.064c-.851-.84-1.872-1.266-3.074-1.266-.84 0-1.628.223-2.34.681s-1.226 1.068-1.585 1.819c-.109.228-.298.33-.543.33a.53.53 0 0 1-.521-.33c-.355-.759-.904-1.362-1.617-1.819s-1.49-.681-2.33-.681c-1.202 0-2.223.426-3.085 1.277-.851.84-1.277 1.862-1.277 3.053 0 .628.056 1.194.234 1.745l.245.755c.122.377.419.816.657 1.167l.152.227c.118.18.298.404.532.66l.145.158.419.459a9.76 9.76 0 0 0 .66.638l.67.607.734.649 1.521 1.351 1.351 1.34c.572.588 1.074 1.16 1.511 1.723.415-.574.901-1.162 1.458-1.755l1.415-1.425 1.521-1.372 2.479-2.362z" fill="#2e2e2e"/></svg>