<svg xmlns="http://www.w3.org/2000/svg" height="512" viewBox="0 0 450.824 450.824" width="512"  xmlns:v="https://vecta.io/nano"><path d="M390.345 116.833a14.09 14.09 0 0 1-19.924 19.924 14.09 14.09 0 0 1 19.924-19.924m18.214-60.479H335.71c-5.82-16.4-21.49-28.176-39.857-28.176H154.971c-18.102 0-33.492 11.491-39.506 27.523l22.668 22.668c1.603-2.287 2.75-4.919 2.75-7.926a14.1 14.1 0 0 1 14.088-14.088h140.882a14.1 14.1 0 0 1 14.088 14.088c0 7.787 6.301 14.088 14.088 14.088h84.529a14.1 14.1 0 0 1 14.088 14.088v253.588c0 3.003-1.151 5.634-2.755 7.921l20.082 20.082c6.669-7.474 10.85-17.22 10.85-28.003V98.618c0-23.306-18.958-42.264-42.264-42.264zm-79.398 213.043c5.756-13.524 8.956-28.385 8.956-43.985 0-62.145-50.561-112.706-112.706-112.706-15.6 0-30.46 3.2-43.985 8.956l22.371 22.371c6.941-1.849 14.097-3.151 21.614-3.151 46.612 0 84.529 37.917 84.529 84.529 0 7.517-1.302 14.673-3.151 21.614l22.372 22.372zM0 19.923l36.966 36.966C16.181 59.527 0 77.127 0 98.619v253.588c0 23.306 18.959 42.265 42.265 42.265H374.55l56.353 56.353 19.922-19.922L19.922 0zm42.265 346.373a14.1 14.1 0 0 1-14.088-14.088V98.619a14.1 14.1 0 0 1 14.088-14.088h22.343l72.397 72.397c-14.876 19.038-24.298 42.507-24.298 68.486 0 62.145 50.561 112.706 112.706 112.706 25.982 0 49.51-9.357 68.558-24.226l52.403 52.403zm114.738-189.369l116.971 116.971c-13.772 9.882-30.35 16.045-48.562 16.045-46.612 0-84.529-37.917-84.529-84.529-.001-18.208 6.235-34.722 16.12-48.487z" fill="#5c5c5c"/></svg>